<svg width="20" height="20" viewBox="0 0 20 20" fill="none" xmlns="http://www.w3.org/2000/svg">
<path d="M8.73713 16.0783C8.09186 16.6834 7.23654 17.0138 6.35207 16.9996C5.46759 16.9853 4.62333 16.6277 3.99783 16.0022C3.37234 15.3767 3.01466 14.5324 3.00044 13.6479C2.98623 12.7635 3.31659 11.9081 3.92166 11.2629L6.93165 8.2516C7.53942 7.64458 8.35407 7.28955 9.21246 7.25761C10.0709 7.22567 10.9096 7.51917 11.5608 8.07935M11.1461 4.03838C11.4604 3.71339 11.8361 3.45421 12.2516 3.27595C12.667 3.0977 13.1137 3.00393 13.5658 3.00012C14.0178 2.99631 14.4661 3.08254 14.8844 3.25377C15.3028 3.425 15.6829 3.67781 16.0025 3.99746C16.3222 4.31711 16.575 4.6972 16.7462 5.11556C16.9175 5.53393 17.0037 5.9822 16.9999 6.43423C16.9961 6.88627 16.9023 7.33302 16.724 7.74844C16.5458 8.16386 16.2866 8.53964 15.9616 8.85385L12.9516 11.8651C12.3439 12.4721 11.5292 12.8272 10.6708 12.8591C9.81243 12.891 8.97365 12.5975 8.32245 12.0374" stroke="#141414" stroke-width="1.8" stroke-linecap="round" stroke-linejoin="round"/>
</svg>
