<svg width="26" height="26" viewBox="0 0 26 26" fill="none" xmlns="http://www.w3.org/2000/svg">
<mask id="path-1-inside-1_800_2818" fill="white">
<path d="M18 8C18 10.7614 15.7614 13 13 13C10.2386 13 8 10.7614 8 8C8 5.23858 10.2386 3 13 3C15.7614 3 18 5.23858 18 8Z"/>
</mask>
<path d="M16.2 8C16.2 9.76731 14.7673 11.2 13 11.2V14.8C16.7555 14.8 19.8 11.7555 19.8 8H16.2ZM13 11.2C11.2327 11.2 9.8 9.76731 9.8 8H6.2C6.2 11.7555 9.24446 14.8 13 14.8V11.2ZM9.8 8C9.8 6.23269 11.2327 4.8 13 4.8V1.2C9.24446 1.2 6.2 4.24446 6.2 8H9.8ZM13 4.8C14.7673 4.8 16.2 6.23269 16.2 8H19.8C19.8 4.24446 16.7555 1.2 13 1.2V4.8Z" fill="#141414" mask="url(#path-1-inside-1_800_2818)"/>
<path d="M5.42435 18.635C6.03751 16.4276 8.04733 14.9 10.3383 14.9H15.9647C18.3551 14.9 20.4248 16.5602 20.9433 18.8937L21.3101 20.5444C21.6016 21.8559 20.6036 23.1 19.2602 23.1H6.94692C5.55815 23.1 4.55184 21.7761 4.92354 20.4379L5.42435 18.635Z" stroke="#141414" stroke-width="1.8"/>
</svg>
