<svg width="14" height="14" viewBox="0 0 14 14" fill="none" xmlns="http://www.w3.org/2000/svg">
<path fill-rule="evenodd" clip-rule="evenodd" d="M11.5649 10.3178C11.5644 10.3184 11.5639 10.3191 11.5634 10.3197C11.5676 10.3222 11.5718 10.3247 11.576 10.3272C11.5722 10.3241 11.5686 10.321 11.5649 10.3178ZM5.14859 12.2392C5.14713 12.2387 5.14567 12.2383 5.14421 12.2378C5.14349 12.2431 5.14274 12.2483 5.14194 12.2535C5.14412 12.2488 5.14634 12.244 5.14859 12.2392ZM8.81322 12.6646C8.81322 12.6463 8.81271 12.6281 8.81168 12.61C8.85072 12.6923 8.90092 12.7697 8.96266 12.8406C9.4547 13.4056 10.4929 13.3468 11.2815 12.7092C12.0701 12.0716 12.3105 11.0966 11.8184 10.5316C11.784 10.4921 11.7469 10.4556 11.7073 10.4221C11.7972 10.4775 11.8952 10.5198 12.0004 10.5469C12.7398 10.7378 13.5571 10.1088 13.826 9.14185C14.0946 8.17601 13.7143 7.23842 12.9765 7.04609C13.0489 7.0365 13.1205 7.0196 13.1907 6.995C13.91 6.74273 14.2051 5.77568 13.8498 4.83503C13.4981 3.90393 12.6409 3.34771 11.9259 3.58118C11.9629 3.54415 11.9971 3.50418 12.0283 3.4613C12.4674 2.8571 12.1334 1.90185 11.2824 1.32769C10.4314 0.753534 9.38565 0.777886 8.94658 1.38209C8.93083 1.40377 8.91607 1.4259 8.9023 1.44845C8.90669 1.41122 8.90893 1.37356 8.90893 1.33553C8.90893 0.597935 8.06676 0 7.02789 0C5.98902 0 5.14685 0.597935 5.14685 1.33553C5.14685 1.34817 5.1471 1.36076 5.14759 1.37332C5.13447 1.35205 5.12047 1.33117 5.10559 1.31068C4.66652 0.706484 3.62073 0.682132 2.76974 1.25629C1.91875 1.83045 1.58481 2.7857 2.02387 3.3899C2.04346 3.41685 2.06425 3.44265 2.08619 3.46729C1.36884 3.22379 0.504197 3.781 0.150555 4.71722C-0.20476 5.65786 0.090324 6.62492 0.809642 6.87719C0.873121 6.89945 0.937783 6.9154 1.00317 6.92534C0.265048 7.11739 -0.115477 8.05518 0.153165 9.02123C0.422044 9.98814 1.23942 10.6172 1.97881 10.4263C2.00949 10.4184 2.03956 10.4092 2.06899 10.3987C2.05215 10.4155 2.03585 10.433 2.02011 10.451C1.52807 11.016 1.77433 11.9957 2.57015 12.6391C3.36597 13.2826 4.40999 13.3462 4.90203 12.7811C4.96764 12.7058 5.02012 12.6231 5.05993 12.5348C5.05412 12.5775 5.05115 12.6208 5.05115 12.6646C5.05115 13.4022 5.89332 14.0002 6.93219 14.0002C7.97105 14.0002 8.81322 13.4022 8.81322 12.6646Z" fill="#BDBDBD"/>
</svg>
