<svg width="58" height="58" viewBox="0 0 58 58" fill="none" xmlns="http://www.w3.org/2000/svg">
<path fill-rule="evenodd" clip-rule="evenodd" d="M47.9105 42.7443C47.9085 42.7468 47.9065 42.7494 47.9045 42.7519C47.9219 42.7623 47.9392 42.7727 47.9565 42.7833C47.9411 42.7704 47.9257 42.7574 47.9105 42.7443ZM21.3294 50.7042C21.3233 50.7022 21.3173 50.7002 21.3112 50.6983C21.3082 50.7201 21.3051 50.7418 21.3018 50.7635C21.3109 50.7436 21.32 50.7239 21.3294 50.7042ZM36.5111 52.4665C36.5111 52.3907 36.5089 52.3153 36.5047 52.2402C36.6664 52.5813 36.8744 52.9017 37.1302 53.1954C39.1686 55.5362 43.4694 55.2925 46.7364 52.651C50.0034 50.0096 50.9993 45.9707 48.9609 43.63C48.8182 43.4661 48.6644 43.3149 48.5007 43.1763C48.873 43.4057 49.2788 43.5809 49.7146 43.6934C52.7778 44.4843 56.164 41.8782 57.2779 37.8725C58.3905 33.8712 56.8151 29.987 53.7585 29.1902C54.0586 29.1505 54.3552 29.0805 54.6458 28.9786C57.6258 27.9335 58.8483 23.9272 57.3763 20.0304C55.9192 16.173 52.3683 13.8687 49.4062 14.836C49.5595 14.6826 49.7012 14.517 49.8303 14.3393C51.6493 11.8363 50.2659 7.87892 46.7404 5.50031C43.215 3.12171 38.8825 3.2226 37.0635 5.72565C36.9983 5.81545 36.9372 5.90713 36.8801 6.00054C36.8983 5.84633 36.9075 5.69031 36.9075 5.53276C36.9075 2.4771 33.4186 0 29.1149 0C24.8111 0 21.3222 2.4771 21.3222 5.53276C21.3222 5.58512 21.3232 5.63731 21.3252 5.68932C21.2709 5.60124 21.2129 5.51471 21.1512 5.42984C19.3323 2.92679 14.9998 2.82591 11.4744 5.20451C7.9489 7.58312 6.56549 11.5405 8.38443 14.0435C8.46557 14.1552 8.55171 14.2621 8.64257 14.3642C5.67079 13.3554 2.08877 15.6638 0.623712 19.5423C-0.84827 23.4392 0.374191 27.4454 3.35415 28.4905C3.61713 28.5828 3.88501 28.6488 4.15588 28.69C1.09803 29.4856 -0.478396 33.3707 0.634527 37.3728C1.74843 41.3785 5.1346 43.9846 8.19775 43.1937C8.32486 43.1609 8.44941 43.1227 8.57132 43.0795C8.50156 43.149 8.43403 43.2212 8.36883 43.2961C6.33042 45.6369 7.35062 49.6953 10.6475 52.361C13.9444 55.0266 18.2695 55.2899 20.3079 52.9491C20.5797 52.637 20.7972 52.2944 20.9621 51.9285C20.938 52.1055 20.9257 52.285 20.9257 52.4665C20.9257 55.5222 24.4146 57.9993 28.7184 57.9993C33.0222 57.9993 36.5111 55.5222 36.5111 52.4665Z" fill="#D9D9D9"/>
</svg>
