<svg width="58" height="58" viewBox="0 0 58 58" fill="none" xmlns="http://www.w3.org/2000/svg">
<path fill-rule="evenodd" clip-rule="evenodd" d="M0 2.57778C0 1.15411 1.15411 0 2.57778 0H38.6667C49.3439 0 57.9996 8.65546 58 19.3327V19.3333V34.666C58 36.8751 56.2091 38.666 54 38.666H0C0 28.043 8.56772 19.421 19.17 19.3333H16.7556C7.50172 19.3333 0 11.8316 0 2.57778ZM41.2444 38.6673H0C0 49.3448 8.65583 58.0007 19.3333 58.0007H55.4222C56.8459 58.0007 58 56.8466 58 55.4229C58 46.1691 50.4983 38.6673 41.2444 38.6673Z" fill="#D9D9D9"/>
</svg>
