<svg width="14" height="14" viewBox="0 0 14 14" fill="none" xmlns="http://www.w3.org/2000/svg">
<path fill-rule="evenodd" clip-rule="evenodd" d="M0 0.622222C0 0.278578 0.278578 0 0.622222 0H9.33333C11.9107 0 14 2.08933 14 4.66665V4.66667V5.33332C14 7.54246 12.2091 9.33332 10 9.33332H0C0 6.7602 2.08252 4.67347 4.65405 4.66667H4.04444C1.81076 4.66667 0 2.85591 0 0.622222ZM9.95556 9.33335H0C0 11.9107 2.08934 14 4.66667 14H13.3778C13.7214 14 14 13.7214 14 13.3778C14 11.1441 12.1892 9.33335 9.95556 9.33335Z" fill="#BDBDBD"/>
</svg>
