<svg width="250" height="250" viewBox="0 0 250 250" fill="none" xmlns="http://www.w3.org/2000/svg">
<path fill-rule="evenodd" clip-rule="evenodd" d="M0 125C0 158.931 23.6595 187.337 55.3812 194.619C62.6634 226.341 91.0687 250 125 250H0V125ZM125 0C91.0687 0 62.6634 23.6595 55.3812 55.3812C23.6595 62.6633 2.68554e-06 91.0687 0 125V0H125ZM250 125C250 158.931 226.341 187.337 194.619 194.619C187.337 226.341 158.931 250 125 250H250V125ZM250 125C250 91.0687 226.341 62.6633 194.619 55.3812C187.337 23.6595 158.931 0 125 0H250V125Z" fill="#D9D9D9"/>
</svg>
