<svg width="20" height="20" viewBox="0 0 20 20" fill="none" xmlns="http://www.w3.org/2000/svg">
<path fill-rule="evenodd" clip-rule="evenodd" d="M2.85049 4.91855C2.85049 3.37216 4.1041 2.11855 5.65049 2.11855H14.4017C15.9481 2.11855 17.2017 3.37216 17.2017 4.91856V15.6698C17.2017 15.7072 17.1992 15.7441 17.1942 15.7801H19.1346C19.5764 15.7801 19.9346 16.1383 19.9346 16.5801C19.9346 17.0219 19.5764 17.3801 19.1346 17.3801H0.918555C0.476727 17.3801 0.118555 17.0219 0.118555 16.5801C0.118555 16.1383 0.476727 15.7801 0.918555 15.7801H2.85804C2.85306 15.7441 2.85049 15.7072 2.85049 15.6698V4.91855ZM15.6017 15.6698C15.6017 15.7072 15.6043 15.7441 15.6093 15.7801H4.44295C4.44792 15.7441 4.45049 15.7072 4.45049 15.6698V4.91855C4.45049 4.25581 4.98775 3.71855 5.65049 3.71855H14.4017C15.0645 3.71855 15.6017 4.25581 15.6017 4.91856V15.6698ZM13.7799 8.03747C14.0923 7.72505 14.0923 7.21852 13.7799 6.9061C13.4675 6.59368 12.961 6.59368 12.6485 6.9061L9.11562 10.439L7.8597 9.1831C7.54728 8.87068 7.04075 8.87068 6.72833 9.1831C6.41591 9.49552 6.41591 10.0021 6.72833 10.3145L8.54993 12.1361C8.86235 12.4485 9.36888 12.4485 9.6813 12.1361L13.7799 8.03747Z" fill="white"/>
</svg>
