<svg width="250" height="250" viewBox="0 0 250 250" fill="none" xmlns="http://www.w3.org/2000/svg">
<path fill-rule="evenodd" clip-rule="evenodd" d="M233.828 93.9923C244.123 84.8384 250 74.2573 250 62.9845V125C250 113.727 244.123 103.146 233.828 93.9923ZM250 187.016C250 175.743 244.123 165.162 233.828 156.008C244.123 146.854 250 136.273 250 125V187.016ZM125 250C194.036 250 250 221.801 250 187.016V250H125ZM0 187.016C0 221.801 55.9644 250 125 250H0V187.016ZM0 125C0 136.273 5.87744 146.854 16.1724 156.008C5.87744 165.162 0 175.743 0 187.016V125ZM0 125V62.9845C0 74.2573 5.87744 84.8384 16.1724 93.9923C5.87744 103.146 0 113.727 0 125ZM125 0C194.036 0 250 28.1991 250 62.9845V0H125ZM125 0C55.9644 0 0 28.1991 0 62.9845V0H125Z" fill="#D9D9D9"/>
</svg>
