<svg width="250" height="250" viewBox="0 0 250 250" fill="none" xmlns="http://www.w3.org/2000/svg">
<path fill-rule="evenodd" clip-rule="evenodd" d="M0 62.5C0 27.9822 27.9822 0 62.5 0H0V62.5ZM0 187.5C0 152.982 27.9822 125 62.5 125C27.9822 125 0 97.0178 0 62.5V187.5ZM62.5 250C27.9822 250 0 222.018 0 187.5V250H62.5ZM187.5 250H250V187.5V62.5V0H187.5C222.018 0 250 27.9822 250 62.5C250 97.0178 222.018 125 187.5 125C222.018 125 250 152.982 250 187.5C250 222.018 222.018 250 187.5 250Z" fill="#D9D9D9"/>
</svg>
