<svg width="26" height="26" viewBox="0 0 26 26" fill="none" xmlns="http://www.w3.org/2000/svg">
<circle cx="9" cy="9" r="2" stroke="#333333" stroke-width="2"/>
<path d="M20.2734 9.07107V2M16.7379 5.53553H23.809" stroke="#333333" stroke-width="2" stroke-linecap="round" stroke-linejoin="round"/>
<path d="M14.1966 2H8C4.68629 2 2 4.68629 2 8V17.8698C2 21.1835 4.68629 23.8698 8 23.8698H17.8698C21.1835 23.8698 23.8698 21.1835 23.8698 17.8698V11.2526" stroke="#333333" stroke-width="2" stroke-linecap="round"/>
<mask id="mask0_1387_5229" style="mask-type:alpha" maskUnits="userSpaceOnUse" x="2" y="2" width="22" height="22">
<rect x="3" y="3" width="20" height="20" rx="5" fill="white" stroke="black" stroke-width="2"/>
</mask>
<g mask="url(#mask0_1387_5229)">
<mask id="path-5-inside-1_1387_5229" fill="white">
<path fill-rule="evenodd" clip-rule="evenodd" d="M18.5005 26.5379C22.4727 26.5379 25.6928 23.3178 25.6928 19.3456C25.6928 15.3734 22.4727 12.1533 18.5005 12.1533C17.3205 12.1533 16.2069 12.4375 15.2244 12.941C13.1361 14.0114 10.2702 14.6918 7.92353 14.6918C4.18498 14.6918 1.1543 17.5331 1.1543 21.038C1.1543 24.5428 4.18498 27.3841 7.92353 27.3841C8.28944 27.3841 8.64857 27.3569 8.99873 27.3045C11.851 26.8777 15.6165 26.5379 18.5005 26.5379Z"/>
</mask>
<path d="M15.2244 12.941L14.3122 11.1612L15.2244 12.941ZM23.6928 19.3456C23.6928 22.2133 21.3681 24.5379 18.5005 24.5379V28.5379C23.5772 28.5379 27.6928 24.4224 27.6928 19.3456H23.6928ZM18.5005 14.1533C21.3681 14.1533 23.6928 16.478 23.6928 19.3456H27.6928C27.6928 14.2689 23.5772 10.1533 18.5005 10.1533V14.1533ZM16.1367 14.7209C16.8434 14.3586 17.6451 14.1533 18.5005 14.1533V10.1533C16.996 10.1533 15.5704 10.5163 14.3122 11.1612L16.1367 14.7209ZM3.1543 21.038C3.1543 18.7573 5.166 16.6918 7.92353 16.6918V12.6918C3.20396 12.6918 -0.845703 16.3089 -0.845703 21.038H3.1543ZM7.92353 25.3841C5.166 25.3841 3.1543 23.3186 3.1543 21.038H-0.845703C-0.845703 25.767 3.20396 29.3841 7.92353 29.3841V25.3841ZM8.70278 25.3265C8.45036 25.3643 8.19016 25.3841 7.92353 25.3841V29.3841C8.38872 29.3841 8.84677 29.3495 9.29469 29.2825L8.70278 25.3265ZM9.29469 29.2825C12.074 28.8666 15.738 28.5379 18.5005 28.5379V24.5379C15.495 24.5379 11.6279 24.8888 8.70278 25.3265L9.29469 29.2825ZM14.3122 11.1612C12.5112 12.0843 9.95875 12.6918 7.92353 12.6918V16.6918C10.5817 16.6918 13.7609 15.9386 16.1367 14.7209L14.3122 11.1612Z" fill="#333333" mask="url(#path-5-inside-1_1387_5229)"/>
</g>
</svg>
