<svg width="24" height="24" viewBox="0 0 24 24" fill="none" xmlns="http://www.w3.org/2000/svg">
<rect width="24" height="24" rx="6" fill="white"/>
<circle cx="16" cy="7.33301" r="2" fill="#FF886D"/>
<mask id="mask0_800_2820" style="mask-type:alpha" maskUnits="userSpaceOnUse" x="0" y="0" width="24" height="24">
<rect width="24" height="24" rx="6" fill="white"/>
</mask>
<g mask="url(#mask0_800_2820)">
<path fill-rule="evenodd" clip-rule="evenodd" d="M19.001 27.999C15.4958 27.999 10.4821 27.5768 6.99643 27.9463C6.66947 27.9809 6.33746 27.9987 6.0013 27.9987C0.846645 27.9987 -3.33203 23.82 -3.33203 18.6654C-3.33203 13.5107 0.846645 9.33203 6.0013 9.33203C8.38814 9.33203 10.5657 10.228 12.2161 11.7019C13.9058 13.211 16.7355 13.999 19.001 13.999C22.867 13.999 26.001 17.133 26.001 20.999C26.001 24.865 22.867 27.999 19.001 27.999Z" fill="#00E7A2"/>
</g>
</svg>
