<svg width="26" height="26" viewBox="0 0 26 26" fill="none" xmlns="http://www.w3.org/2000/svg">
<path fill-rule="evenodd" clip-rule="evenodd" d="M12.9802 10.7516C14.185 10.7516 15.2854 9.71287 15.2854 8.27578C15.2854 6.83869 14.185 5.8 12.9802 5.8C11.7754 5.8 10.675 6.83869 10.675 8.27578C10.675 9.71287 11.7754 10.7516 12.9802 10.7516ZM12.9802 12.5516C15.2475 12.5516 17.0854 10.6372 17.0854 8.27578C17.0854 5.91433 15.2475 4 12.9802 4C10.7129 4 8.87495 5.91433 8.87495 8.27578C8.87495 10.6372 10.7129 12.5516 12.9802 12.5516ZM14.5116 15.205H11.6603C9.75754 15.205 8.09248 16.4842 7.60216 18.3227L7.51558 18.6474C7.3124 19.4092 7.8866 20.1566 8.67505 20.1566H17.4835C18.247 20.1566 18.8164 19.4529 18.657 18.7062L18.6192 18.5287C18.2056 16.5904 16.4935 15.205 14.5116 15.205ZM11.6603 13.405C8.94207 13.405 6.56341 15.2325 5.86295 17.8589L5.77637 18.1835C5.26842 20.0881 6.70392 21.9566 8.67505 21.9566H17.4835C19.3923 21.9566 20.8157 20.1974 20.4174 18.3306L20.3795 18.1531C19.7888 15.3842 17.3428 13.405 14.5116 13.405H11.6603ZM18.2799 4.81133C17.7828 4.81133 17.3799 5.21427 17.3799 5.71133C17.3799 6.20838 17.7828 6.61133 18.2799 6.61133C18.4637 6.61133 18.8649 6.6684 19.1919 6.89359C19.4622 7.0796 19.7755 7.43835 19.7755 8.2768C19.7755 9.11525 19.4622 9.47398 19.192 9.65996C18.8649 9.88512 18.4638 9.94212 18.2802 9.94206C17.7831 9.94189 17.38 10.3447 17.3799 10.8418C17.3797 11.3388 17.7825 11.7419 18.2796 11.7421C18.6949 11.7422 19.4916 11.639 20.2126 11.1426C20.9905 10.6071 21.5755 9.68313 21.5755 8.2768C21.5755 6.87046 20.9905 5.94647 20.2126 5.41095C19.4916 4.91459 18.695 4.81133 18.2799 4.81133ZM20.3163 13.3598C19.8192 13.3598 19.4163 13.7627 19.4163 14.2598C19.4163 14.7568 19.8192 15.1598 20.3163 15.1598C21.4686 15.1598 21.8874 15.3358 22.1383 15.5839C22.4476 15.8897 22.7065 16.4894 23.0322 17.8849C23.332 19.1696 23.157 19.6954 23.0292 19.8864C22.9217 20.0471 22.7097 20.1708 22.2488 20.2032C21.753 20.2381 21.3794 20.6684 21.4143 21.1642C21.4492 21.66 21.8794 22.0337 22.3752 21.9988C23.0541 21.951 23.9598 21.7326 24.5253 20.8872C25.0706 20.0721 25.124 18.9277 24.7851 17.4758C24.4722 16.1349 24.1324 15.0242 23.4039 14.3039C22.617 13.5258 21.5589 13.3598 20.3163 13.3598ZM7.68652 4.81191C8.18358 4.81191 8.58652 5.21486 8.58652 5.71191C8.58652 6.20897 8.18358 6.61191 7.68652 6.61191C7.50271 6.61191 7.10153 6.66899 6.77443 6.89417C6.50423 7.08019 6.19085 7.43894 6.19085 8.27738C6.19085 9.11584 6.50423 9.47457 6.77441 9.66055C7.10149 9.8857 7.50261 9.94271 7.68622 9.94265C8.18328 9.94248 8.58636 10.3453 8.58652 10.8423C8.58669 11.3394 8.18388 11.7425 7.68683 11.7426C7.27152 11.7428 6.4748 11.6396 5.75378 11.1432C4.97585 10.6077 4.39085 9.68371 4.39085 8.27738C4.39085 6.87105 4.97585 5.94706 5.75376 5.41154C6.47476 4.91518 7.27142 4.81191 7.68652 4.81191ZM5.6483 13.3604C6.14536 13.3604 6.5483 13.7633 6.5483 14.2604C6.5483 14.7574 6.14536 15.1604 5.6483 15.1604C4.49596 15.1604 4.07718 15.3364 3.82629 15.5844C3.51697 15.8903 3.25804 16.49 2.93234 17.8855C2.6477 19.1052 2.87318 19.6327 3.03377 19.8458C3.20723 20.076 3.48535 20.1803 3.74241 20.2061C4.23698 20.2557 4.59766 20.6969 4.54802 21.1915C4.49837 21.6861 4.0572 22.0467 3.56263 21.9971C3.02042 21.9427 2.1809 21.7049 1.59621 20.929C0.99864 20.136 0.82544 18.9933 1.17945 17.4764C1.4924 16.1355 1.83221 15.0248 2.56069 14.3045C3.34761 13.5264 4.40571 13.3604 5.6483 13.3604Z" fill="#141414"/>
</svg>
