<svg width="26" height="26" viewBox="0 0 26 26" fill="none" xmlns="http://www.w3.org/2000/svg">
<path fill-rule="evenodd" clip-rule="evenodd" d="M10.8857 3.91634C8.35444 3.91634 6.30241 5.96837 6.30241 8.49968C6.30241 9.03701 6.39449 9.55085 6.56297 10.0275C6.73168 10.5049 6.4815 11.0286 6.00418 11.1973C5.52685 11.366 5.00314 11.1158 4.83443 10.6385C4.59756 9.96831 4.46907 9.24801 4.46907 8.49968C4.46907 4.95585 7.34191 2.08301 10.8857 2.08301C14.4296 2.08301 17.3024 4.95585 17.3024 8.49967C17.3024 9.24801 17.1739 9.96831 16.9371 10.6385C16.7683 11.1158 16.2446 11.366 15.7673 11.1973C15.29 11.0286 15.0398 10.5049 15.2085 10.0275C15.377 9.55085 15.4691 9.03701 15.4691 8.49967C15.4691 5.96837 13.417 3.91634 10.8857 3.91634ZM11 5.99967C9.34314 5.99967 8 7.34282 8 8.99967L8 14.5061V14.5063L8 14.5075V14.5136C7.35662 14.4642 6.69233 14.621 6.11248 15.0063C4.73243 15.9231 4.35696 17.7852 5.27383 19.1652L8.22454 23.6065C8.71544 24.3454 9.47867 24.7963 10.2901 24.915C10.5186 24.9705 10.7565 24.9997 11 24.9997C11.1931 24.9997 11.3828 24.9813 11.5671 24.946H19C20.6569 24.946 22 23.6028 22 21.946L22 16.5075C22 15.1309 21.0631 13.931 19.7276 13.5971L14 12.1652L14 8.99967C14 7.34282 12.6569 5.99967 11 5.99967ZM10 8.99967C10 8.44739 10.4477 7.99967 11 7.99967C11.5523 7.99967 12 8.44739 12 8.99967V12.946V13.7267L12.7575 13.9161L19.2425 15.5374C19.6877 15.6487 20 16.0486 20 16.5075L20 21.946C20 22.4982 19.5523 22.946 19 22.946H11.4624H11.3456L11.232 22.9728C11.1586 22.9902 11.081 22.9997 11 22.9997C10.9087 22.9997 10.8217 22.9877 10.7399 22.9658L10.6722 22.9476L10.6026 22.9391C10.3205 22.9045 10.0585 22.7528 9.8904 22.4998L6.93969 18.0584C6.63406 17.5984 6.75922 16.9778 7.21924 16.6721C7.58527 16.429 8.05542 16.4577 8.38638 16.7149L10 17.9689L10 15.9253L10 14.5075V14.5073L10 14.5061L10 8.99967Z" fill="#333333"/>
</svg>
