<svg width="140" height="140" viewBox="0 0 140 140" fill="none" xmlns="http://www.w3.org/2000/svg">
<path fill-rule="evenodd" clip-rule="evenodd" d="M0 4C0 1.79086 1.79086 0 4 0H114C128.359 0 140 11.6406 140 26V46.6667H26C11.6406 46.6667 0 35.0261 0 20.6667V4ZM0 72.667C0 58.3076 11.6406 46.667 26 46.667H140V89.3337C140 91.5428 138.209 93.3337 136 93.3337H114.187C128.46 93.434 140 105.036 140 119.333V136C140 138.209 138.209 140 136 140H26C11.6406 140 0 128.359 0 114V93.3337V93.333V72.667Z" fill="#FFDD65"/>
</svg>
