<svg width="140" height="140" viewBox="0 0 140 140" fill="none" xmlns="http://www.w3.org/2000/svg">
<path fill-rule="evenodd" clip-rule="evenodd" d="M140 35.2713C140 41.5841 136.709 47.5095 130.944 52.6357C136.709 57.7618 140 63.6872 140 70C140 76.3127 136.709 82.2381 130.944 87.3642C136.709 92.4903 140 98.4157 140 104.728C140 124.208 108.66 140 70 140C31.3401 140 0 124.208 0 104.728C0 98.4157 3.29124 92.4903 9.05626 87.3642C3.29124 82.2381 0 76.3127 0 70C0 63.6872 3.29131 57.7618 9.05645 52.6357C3.29131 47.5095 0 41.5841 0 35.2713C0 15.7915 31.3401 0 70 0C108.66 0 140 15.7915 140 35.2713Z" fill="#6BD0FC"/>
</svg>
