<svg width="58" height="58" viewBox="0 0 58 58" fill="none" xmlns="http://www.w3.org/2000/svg">
<path fill-rule="evenodd" clip-rule="evenodd" d="M58 14.6124C58 17.2275 56.6366 19.6822 54.2485 21.8058C56.6366 23.9294 58 26.384 58 28.9991C58 31.6146 56.6362 34.0697 54.2474 36.1935C56.6362 38.3173 58 40.7723 58 43.3879C58 51.4581 45.0163 58.0003 29 58.0003C12.9837 58.0003 0 51.4581 0 43.3879C0 40.7723 1.36379 38.3173 3.7526 36.1935C1.36379 34.0697 0 31.6146 0 28.9991C0 26.384 1.36336 23.9294 3.75147 21.8058C1.36336 19.6822 0 17.2275 0 14.6124C0 6.5422 12.9837 0 29 0C45.0163 0 58 6.5422 58 14.6124Z" fill="#FE8081"/>
</svg>
