<svg width="250" height="250" viewBox="0 0 250 250" fill="none" xmlns="http://www.w3.org/2000/svg">
<path fill-rule="evenodd" clip-rule="evenodd" d="M125 223.885C137.89 239.815 157.599 250 179.688 250H70.3125C92.4005 250 112.11 239.815 125 223.885ZM0 179.688C0 218.52 31.48 250 70.3125 250H0V179.688ZM0 70.3125C0 92.4005 10.1849 112.11 26.1146 125C10.1849 137.89 0 157.599 0 179.688V70.3125ZM70.3125 0C31.48 0 0 31.48 0 70.3125V0H70.3125ZM70.3125 0H179.688C157.599 0 137.89 10.1849 125 26.1146C112.11 10.1849 92.4005 0 70.3125 0ZM250 70.3125C250 31.48 218.52 0 179.688 0H250V70.3125ZM250 179.688C250 218.52 218.52 250 179.688 250H250V179.688ZM250 179.688C250 157.599 239.815 137.89 223.885 125C239.815 112.11 250 92.4005 250 70.3125V179.688Z" fill="#D9D9D9"/>
</svg>
