<svg width="20" height="20" viewBox="0 0 20 20" fill="none" xmlns="http://www.w3.org/2000/svg">
<path fill-rule="evenodd" clip-rule="evenodd" d="M7.77903 1.67852C5.73945 1.67852 4.02219 3.4233 4.02219 5.65625C4.02219 6.09808 3.66402 6.45625 3.22219 6.45625C2.78036 6.45625 2.42219 6.09808 2.42219 5.65625C2.42219 2.61186 4.78526 0.0785158 7.77903 0.0785156C10.7728 0.0785155 13.1359 2.61186 13.1359 5.65625C13.1359 6.09808 12.7777 6.45625 12.3359 6.45625C11.894 6.45625 11.5359 6.09808 11.5359 5.65625C11.5359 3.4233 9.81861 1.67852 7.77903 1.67852ZM7.87441 3.55117C6.51743 3.55117 5.41738 4.65122 5.41738 6.0082L5.41738 10.9436C4.87499 10.8961 4.31265 11.0338 3.82582 11.373C2.71216 12.1487 2.401 13.6934 3.12745 14.8398L5.60547 18.7505C6.00359 19.3788 6.63688 19.7644 7.3193 19.8556C7.4984 19.897 7.68435 19.9187 7.87441 19.9187C8.03715 19.9187 8.19688 19.9028 8.3519 19.8722H14.1596C15.706 19.8722 16.9596 18.6186 16.9596 17.0722L16.9596 12.7974C16.9596 11.5244 16.1009 10.4117 14.8695 10.0889L10.3314 8.89939L10.3314 6.0082C10.3314 4.65122 9.23139 3.55117 7.87441 3.55117ZM7.01738 6.0082C7.01738 5.53488 7.40108 5.15117 7.87441 5.15117C8.34773 5.15117 8.73144 5.53488 8.73144 6.0082V9.51673V10.1341L9.3286 10.2906L14.4638 11.6366C14.9916 11.775 15.3596 12.2519 15.3596 12.7974L15.3596 17.0722C15.3596 17.7349 14.8223 18.2722 14.1596 18.2722H8.26592H8.17041L8.07758 18.2947C8.01325 18.3103 7.94535 18.3187 7.87441 18.3187C7.79967 18.3187 7.72828 18.3093 7.66085 18.2921L7.60598 18.2781L7.54968 18.2719C7.32129 18.2469 7.10116 18.1216 6.95699 17.8941L4.47896 13.9834C4.21096 13.5605 4.3295 12.972 4.74035 12.6858C5.05609 12.4659 5.44256 12.4947 5.70968 12.7141L7.01738 13.788L7.01738 12.0958V11.2398V11.2395V11.2384V6.0082Z" fill="white"/>
</svg>
