<svg width="250" height="250" viewBox="0 0 250 250" fill="none" xmlns="http://www.w3.org/2000/svg">
<path fill-rule="evenodd" clip-rule="evenodd" d="M206.489 184.284L206.51 184.257L206.595 184.329L206.671 184.394C206.611 184.357 206.55 184.32 206.489 184.284ZM91.8477 218.528L91.9403 218.558C91.8922 218.66 91.8451 218.762 91.7988 218.865C91.816 218.753 91.8323 218.641 91.8477 218.528ZM157.375 225.662C157.38 225.825 157.382 225.988 157.382 226.151C157.382 239.297 142.402 249.958 123.901 250H250V100.692C249.979 112.045 244.676 121.703 235.542 124.906C234.282 125.348 232.996 125.651 231.695 125.821C244.878 129.249 251.675 145.996 246.877 163.249C242.076 180.515 227.48 191.748 214.277 188.339C212.41 187.857 210.67 187.108 209.073 186.129C209.77 186.72 210.424 187.364 211.031 188.062C219.818 198.152 215.525 215.561 201.443 226.947C187.36 238.333 168.822 239.383 160.035 229.293C158.942 228.038 158.051 226.669 157.356 225.212C157.365 225.362 157.371 225.512 157.375 225.662ZM250 100.561V0H125.499H0V250H123.683C105.182 249.958 90.202 239.297 90.202 226.151C90.202 225.352 90.2573 224.562 90.3655 223.784C89.6519 225.38 88.7069 226.875 87.5223 228.236C78.7358 238.325 60.0927 237.19 45.8816 225.7C31.6705 214.21 27.2729 196.716 36.0594 186.627C36.344 186.3 36.6389 185.985 36.9437 185.682C36.4103 185.872 35.865 186.039 35.3085 186.183C22.1049 189.592 7.50891 178.358 2.70752 161.092C-2.09009 143.84 4.70654 127.092 17.8893 123.665C16.73 123.487 15.5835 123.203 14.4579 122.809C1.61292 118.304 -3.65637 101.035 2.68848 84.2378C9.00269 67.5216 24.4398 57.5719 37.2487 61.9161C36.9783 61.6125 36.7177 61.2992 36.467 60.976C36.3533 60.8292 36.2416 60.6804 36.132 60.5295C28.2915 49.7402 34.2546 32.6823 49.4509 22.4294C64.6472 12.1765 83.3221 12.6115 91.1625 23.4006C91.4321 23.7719 91.6855 24.1504 91.9227 24.5358C91.9137 24.3075 91.9091 24.0785 91.9091 23.8486C91.9091 10.6774 106.948 0 125.499 0C144.05 0 159.089 10.6774 159.089 23.8486C159.089 24.526 159.049 25.1968 158.971 25.8599C159.105 25.6418 159.243 25.426 159.387 25.2124C159.507 25.0334 159.631 24.8562 159.759 24.6805C167.599 13.8912 186.274 13.4564 201.47 23.7092C216.667 33.962 222.63 51.0201 214.789 61.8093C214.235 62.5714 213.628 63.2819 212.971 63.9406C225.736 59.7828 241.033 69.7141 247.312 86.3351C249.127 91.1417 249.992 95.9869 250 100.561Z" fill="#D9D9D9"/>
</svg>
