<svg width="14" height="14" viewBox="0 0 14 14" fill="none" xmlns="http://www.w3.org/2000/svg">
<path fill-rule="evenodd" clip-rule="evenodd" d="M14 3.52713C14 4.1584 13.6709 4.75094 13.0944 5.26356C13.6709 5.77617 14 6.36871 14 6.99998C14 7.63127 13.6709 8.22381 13.0943 8.73643C13.6709 9.24905 14 9.8416 14 10.4729C14 12.4209 10.866 14 7 14C3.13401 14 0 12.4209 0 10.4729C0 9.8416 0.329139 9.24905 0.905665 8.73643C0.329139 8.22381 0 7.63127 0 6.99998C0 6.36871 0.329128 5.77617 0.905637 5.26356C0.329128 4.75094 0 4.1584 0 3.52713C0 1.57915 3.13401 0 7 0C10.866 0 14 1.57915 14 3.52713Z" fill="#BDBDBD"/>
</svg>
