<svg width="26" height="26" viewBox="0 0 26 26" fill="none" xmlns="http://www.w3.org/2000/svg">
<mask id="path-1-inside-1_800_2817" fill="white">
<path fill-rule="evenodd" clip-rule="evenodd" d="M17.441 5.05324C19.9992 6.48051 21.7294 9.21391 21.7294 12.3514V16.0361C21.7294 16.0751 21.7271 16.1136 21.7226 16.1514C21.7601 16.6506 21.9746 17.2305 22.2576 17.7891C22.678 18.6187 22.0304 20 21.1003 20H5.65561C4.72558 20 4.16027 18.6823 4.55749 17.8414C4.84482 17.2331 5.02639 16.5938 5.02656 16.0008V12.3514C5.02656 9.21391 6.75671 6.48051 9.31497 5.05324C9.74022 3.30106 11.3193 2 13.2023 2H13.5537C15.4366 2 17.0157 3.30106 17.441 5.05324ZM16.1728 22.1075C15.7367 23.2115 14.5825 24.0004 13.2271 24.0004C11.8717 24.0004 10.7174 23.2115 10.2814 22.1075C10.0785 21.5938 10.543 21.1309 11.0953 21.1309H15.3589C15.9112 21.1309 16.3757 21.5938 16.1728 22.1075Z"/>
</mask>
<path d="M17.441 5.05324L15.6918 5.47777L15.8772 6.242L16.564 6.62515L17.441 5.05324ZM21.7226 16.1514L19.9352 15.9385L19.9145 16.112L19.9276 16.2863L21.7226 16.1514ZM22.2576 17.7891L20.652 18.6027L20.652 18.6027L22.2576 17.7891ZM4.55749 17.8414L2.92992 17.0726H2.92992L4.55749 17.8414ZM5.02656 16.0008L6.82656 16.0013V16.0008H5.02656ZM9.31497 5.05324L10.192 6.62515L10.8787 6.242L11.0642 5.47777L9.31497 5.05324ZM16.1728 22.1075L14.4987 21.4462L16.1728 22.1075ZM10.2814 22.1075L11.9555 21.4462L10.2814 22.1075ZM23.5294 12.3514C23.5294 8.53531 21.4229 5.21362 18.318 3.48133L16.564 6.62515C18.5755 7.7474 19.9294 9.89252 19.9294 12.3514H23.5294ZM23.5294 16.0361V12.3514H19.9294V16.0361H23.5294ZM23.5099 16.3642C23.5228 16.2559 23.5294 16.1464 23.5294 16.0361H19.9294C19.9294 16.0039 19.9313 15.9712 19.9352 15.9385L23.5099 16.3642ZM23.8633 16.9755C23.6198 16.4949 23.5287 16.1654 23.5175 16.0164L19.9276 16.2863C19.9915 17.1357 20.3294 17.9661 20.652 18.6027L23.8633 16.9755ZM21.1003 21.8C22.5134 21.8 23.4048 20.7879 23.7938 20.0138C24.1895 19.2262 24.4077 18.05 23.8633 16.9755L20.652 18.6027C20.5825 18.4656 20.5884 18.3726 20.5888 18.3668C20.5893 18.3589 20.588 18.3756 20.577 18.3975C20.5648 18.4218 20.5709 18.3939 20.6342 18.3452C20.7057 18.2902 20.8675 18.2 21.1003 18.2V21.8ZM5.65561 21.8H21.1003V18.2H5.65561V21.8ZM2.92992 17.0726C2.45067 18.0872 2.59845 19.2048 2.98514 20.013C3.3691 20.8154 4.25183 21.8 5.65561 21.8V18.2C5.8707 18.2 6.039 18.2817 6.13368 18.3545C6.17718 18.388 6.2028 18.4172 6.21552 18.4336C6.22217 18.4421 6.22642 18.4486 6.22885 18.4526C6.23129 18.4565 6.23236 18.4588 6.23252 18.4591C6.23255 18.4592 6.23102 18.4557 6.22964 18.4503C6.22825 18.4448 6.22844 18.443 6.22861 18.4466C6.22865 18.4473 6.23245 18.5098 6.18505 18.6101L2.92992 17.0726ZM3.22656 16.0003C3.22649 16.2466 3.14439 16.6185 2.92992 17.0726L6.18505 18.6101C6.54525 17.8476 6.82629 16.941 6.82656 16.0013L3.22656 16.0003ZM3.22656 12.3514V16.0008H6.82656V12.3514H3.22656ZM8.43799 3.48133C5.333 5.21362 3.22656 8.53531 3.22656 12.3514H6.82656C6.82656 9.89252 8.18041 7.7474 10.192 6.62515L8.43799 3.48133ZM11.0642 5.47777C11.2981 4.51401 12.169 3.8 13.2023 3.8V0.2C10.4696 0.2 8.18235 2.08811 7.56575 4.6287L11.0642 5.47777ZM13.2023 3.8H13.5537V0.2H13.2023V3.8ZM13.5537 3.8C14.5869 3.8 15.4578 4.51401 15.6918 5.47777L19.1902 4.6287C18.5736 2.08811 16.2863 0.2 13.5537 0.2V3.8ZM13.2271 25.8004C15.2682 25.8004 17.1204 24.6081 17.8469 22.7688L14.4987 21.4462C14.353 21.815 13.8967 22.2004 13.2271 22.2004V25.8004ZM8.60724 22.7688C9.33374 24.6081 11.1859 25.8004 13.2271 25.8004V22.2004C12.5575 22.2004 12.1011 21.815 11.9555 21.4462L8.60724 22.7688ZM11.0953 19.3309C10.3352 19.3309 9.58037 19.6445 9.05926 20.2313C8.49986 20.8612 8.22941 21.8122 8.60724 22.7688L11.9555 21.4462C12.0296 21.6339 12.0569 21.8634 12.0088 22.0989C11.9624 22.3256 11.8582 22.5011 11.751 22.6218C11.5496 22.8487 11.3032 22.9309 11.0953 22.9309V19.3309ZM15.3589 19.3309H11.0953V22.9309H15.3589V19.3309ZM17.8469 22.7688C18.2248 21.8122 17.9543 20.8612 17.3949 20.2313C16.8738 19.6445 16.119 19.3309 15.3589 19.3309V22.9309C15.151 22.9309 14.9046 22.8487 14.7031 22.6218C14.596 22.5011 14.4918 22.3256 14.4454 22.0989C14.3972 21.8634 14.4245 21.6339 14.4987 21.4462L17.8469 22.7688Z" fill="#141414" mask="url(#path-1-inside-1_800_2817)"/>
</svg>
