<svg width="26" height="26" viewBox="0 0 26 26" fill="none" xmlns="http://www.w3.org/2000/svg">
<circle cx="8.63601" cy="8.63601" r="2.27273" stroke="white" stroke-width="2"/>
<path d="M19 24H7C4.23858 24 2 21.7614 2 19V7C2 4.23858 4.23858 2 7 2H19C21.7614 2 24 4.23858 24 7V19C24 21.7614 21.7614 24 19 24Z" stroke="white" stroke-width="2" stroke-linecap="round"/>
<mask id="mask0_1387_5230" style="mask-type:alpha" maskUnits="userSpaceOnUse" x="1" y="1" width="24" height="24">
<rect x="2" y="2" width="22" height="22" rx="5" fill="white" stroke="black" stroke-width="2"/>
</mask>
<g mask="url(#mask0_1387_5230)">
<mask id="path-4-inside-1_1387_5230" fill="white">
<path fill-rule="evenodd" clip-rule="evenodd" d="M19.0003 27.7695C23.3336 27.7695 26.8465 24.2566 26.8465 19.9233C26.8465 15.59 23.3336 12.0771 19.0003 12.0771C17.7132 12.0771 16.4984 12.3871 15.4267 12.9364C13.1483 14.104 10.0219 14.8462 7.46176 14.8462C3.38335 14.8462 0.0771484 17.9458 0.0771484 21.7693C0.0771484 25.5928 3.38335 28.6924 7.46176 28.6924C7.86086 28.6924 8.25256 28.6627 8.63449 28.6056C11.7461 28.1401 15.8541 27.7695 19.0003 27.7695Z"/>
</mask>
<path d="M8.63449 28.6056L8.33859 26.6276L8.63449 28.6056ZM24.8465 19.9233C24.8465 23.152 22.2291 25.7695 19.0003 25.7695V29.7695C24.4382 29.7695 28.8465 25.3612 28.8465 19.9233H24.8465ZM19.0003 14.0771C22.2291 14.0771 24.8465 16.6946 24.8465 19.9233H28.8465C28.8465 14.4854 24.4382 10.0771 19.0003 10.0771V14.0771ZM16.3388 14.7162C17.1349 14.3083 18.0377 14.0771 19.0003 14.0771V10.0771C17.3887 10.0771 15.862 10.4659 14.5145 11.1565L16.3388 14.7162ZM2.07715 21.7693C2.07715 19.17 4.36437 16.8462 7.46176 16.8462V12.8462C2.40233 12.8462 -1.92285 16.7216 -1.92285 21.7693H2.07715ZM7.46176 26.6924C4.36437 26.6924 2.07715 24.3686 2.07715 21.7693H-1.92285C-1.92285 26.817 2.40233 30.6924 7.46176 30.6924V26.6924ZM8.33859 26.6276C8.0544 26.6701 7.7616 26.6924 7.46176 26.6924V30.6924C7.96012 30.6924 8.45072 30.6553 8.93039 30.5836L8.33859 26.6276ZM8.93039 30.5836C11.9691 30.129 15.9756 29.7695 19.0003 29.7695V25.7695C15.7326 25.7695 11.5231 26.1512 8.33859 26.6276L8.93039 30.5836ZM14.5145 11.1565C12.5236 12.1769 9.71041 12.8462 7.46176 12.8462V16.8462C10.3333 16.8462 13.7731 16.0312 16.3388 14.7162L14.5145 11.1565Z" fill="white" mask="url(#path-4-inside-1_1387_5230)"/>
</g>
</svg>
