<svg width="250" height="250" viewBox="0 0 250 250" fill="none" xmlns="http://www.w3.org/2000/svg">
<path fill-rule="evenodd" clip-rule="evenodd" d="M4 0C1.79089 0 0 1.79089 0 4V0H4ZM224 0C238.359 0 250 11.6406 250 26V0H224ZM250 162.667C250 164.876 248.209 166.667 246 166.667L224 166.667C238.359 166.667 250 178.307 250 192.667V162.667ZM250 246C250 248.209 248.209 250 246 250H250V246ZM26 250C11.6406 250 0 238.359 0 224V250H26ZM0 109.333C0 94.9888 11.6165 83.3574 25.9552 83.3333C11.6165 83.3092 0 71.6779 0 57.3334V109.333Z" fill="#D9D9D9"/>
</svg>
