<svg width="14" height="14" viewBox="0 0 14 14" fill="none" xmlns="http://www.w3.org/2000/svg">
<path fill-rule="evenodd" clip-rule="evenodd" d="M10.0625 14C8.82557 14 7.72185 13.4296 7 12.5376C6.27814 13.4296 5.17443 14 3.9375 14C1.76288 14 0 12.2371 0 10.0625C0 8.82557 0.570354 7.72186 1.46242 7C0.570354 6.27814 0 5.17443 0 3.9375C0 1.76288 1.76288 0 3.9375 0C5.17443 0 6.27814 0.570354 7 1.46242C7.72186 0.570354 8.82557 0 10.0625 0C12.2371 0 14 1.76288 14 3.9375C14 5.17443 13.4296 6.27815 12.5376 7C13.4296 7.72186 14 8.82557 14 10.0625C14 12.2371 12.2371 14 10.0625 14Z" fill="#BDBDBD"/>
</svg>
