<svg width="58" height="58" viewBox="0 0 58 58" fill="none" xmlns="http://www.w3.org/2000/svg">
<path fill-rule="evenodd" clip-rule="evenodd" d="M41.6875 58C36.5631 58 31.9905 55.6371 29 51.9414C26.0095 55.6371 21.4369 58 16.3125 58C7.30336 58 0 50.6966 0 41.6875C0 36.5631 2.3629 31.9905 6.05858 29C2.3629 26.0095 0 21.4369 0 16.3125C0 7.30336 7.30336 0 16.3125 0C21.4369 0 26.0095 2.3629 29 6.05858C31.9905 2.3629 36.5631 0 41.6875 0C50.6966 0 58 7.30336 58 16.3125C58 21.4369 55.6371 26.0095 51.9414 29C55.6371 31.9905 58 36.5631 58 41.6875C58 50.6966 50.6966 58 41.6875 58Z" fill="#B4ABFA"/>
</svg>
