<svg width="140" height="140" viewBox="0 0 140 140" fill="none" xmlns="http://www.w3.org/2000/svg">
<path fill-rule="evenodd" clip-rule="evenodd" d="M100.625 140C88.2557 140 77.2186 134.296 70 125.376C62.7814 134.296 51.7443 140 39.375 140C17.6288 140 0 122.371 0 100.625C0 88.2557 5.70354 77.2186 14.6242 70C5.70354 62.7814 0 51.7443 0 39.375C0 17.6288 17.6288 0 39.375 0C51.7443 0 62.7814 5.70354 70 14.6242C77.2186 5.70354 88.2557 0 100.625 0C122.371 0 140 17.6288 140 39.375C140 51.7443 134.296 62.7814 125.376 70C134.296 77.2186 140 88.2557 140 100.625C140 122.371 122.371 140 100.625 140Z" fill="#A880FE"/>
</svg>
